<svg data-v-fde0c5aa="" xmlns="http://www.w3.org/2000/svg" viewBox="0 0 300 300" class="font"><!----><defs data-v-fde0c5aa=""><!----></defs><rect data-v-fde0c5aa="" fill="transparent" x="0" y="0" width="300px" height="300px" class="logo-background-square"></rect><defs data-v-fde0c5aa=""><!----></defs><g data-v-fde0c5aa="" id="eff1b0bf-6c3e-4c5b-8d55-5a49a666a625" fill="#fff" transform="matrix(2.318962910541384,0,0,2.318962910541384,38.72457037155803,125.5813206183453)"><path d="M4.19 14.52C6.52 14.52 7.85 13.26 7.85 11.41C7.85 9.80 6.93 8.92 4.96 8.57L4.05 8.40C3.11 8.23 2.69 7.92 2.69 7.18C2.69 6.45 3.23 6.03 4.28 6.03C5.32 6.03 5.99 6.44 6.47 7.04L7.73 5.85C6.94 4.91 5.85 4.41 4.38 4.41C2.20 4.41 0.84 5.54 0.84 7.29C0.84 8.89 1.79 9.83 3.77 10.14L4.69 10.28C5.71 10.46 6.02 10.86 6.02 11.52C6.02 12.35 5.43 12.89 4.30 12.89C3.29 12.89 2.46 12.47 1.79 11.69L0.55 12.89C1.37 13.86 2.52 14.52 4.19 14.52ZM11.82 14.35L13.10 14.35L13.10 12.92L11.72 12.92L11.72 8.47L13.22 8.47L13.22 7.04L11.72 7.04L11.72 5.04L10.11 5.04L10.11 6.29C10.11 6.79 9.94 7.04 9.41 7.04L8.85 7.04L8.85 8.47L9.93 8.47L9.93 12.49C9.93 13.68 10.58 14.35 11.82 14.35ZM16.58 14.52C17.67 14.52 18.47 14.03 18.70 13.09L18.79 13.09C18.90 13.85 19.38 14.35 20.15 14.35L21.14 14.35L21.14 12.92L20.41 12.92L20.41 9.48C20.41 7.81 19.36 6.87 17.39 6.87C15.92 6.87 15.06 7.43 14.53 8.27L15.60 9.23C15.95 8.72 16.42 8.30 17.26 8.30C18.21 8.30 18.62 8.78 18.62 9.59L18.62 10.12L17.37 10.12C15.39 10.12 14.25 10.86 14.25 12.36C14.25 13.66 15.09 14.52 16.58 14.52ZM17.18 13.22C16.48 13.22 16.07 12.92 16.07 12.33L16.07 12.10C16.07 11.52 16.53 11.20 17.47 11.20L18.62 11.20L18.62 12.17C18.62 12.85 17.98 13.22 17.18 13.22ZM24.39 14.35L24.39 9.52C24.39 8.74 25.10 8.34 25.84 8.34C26.70 8.34 27.05 8.88 27.05 9.91L27.05 14.35L28.84 14.35L28.84 9.73C28.84 7.91 28.00 6.87 26.50 6.87C25.37 6.87 24.75 7.48 24.46 8.26L24.39 8.26L24.39 7.04L22.60 7.04L22.60 14.35ZM35.36 14.35L37.16 14.35L37.16 3.99L35.36 3.99L35.36 8.25L35.29 8.25C35.04 7.41 34.24 6.87 33.28 6.87C31.44 6.87 30.42 8.25 30.42 10.68C30.42 13.13 31.44 14.52 33.28 14.52C34.24 14.52 35.03 13.96 35.29 13.13L35.36 13.13ZM33.85 13.03C32.93 13.03 32.30 12.36 32.30 11.33L32.30 10.07C32.30 9.03 32.93 8.34 33.85 8.34C34.71 8.34 35.36 8.81 35.36 9.52L35.36 11.84C35.36 12.60 34.71 13.03 33.85 13.03ZM41.03 14.52C42.13 14.52 42.92 14.03 43.16 13.09L43.25 13.09C43.36 13.85 43.83 14.35 44.60 14.35L45.60 14.35L45.60 12.92L44.87 12.92L44.87 9.48C44.87 7.81 43.82 6.87 41.85 6.87C40.38 6.87 39.52 7.43 38.99 8.27L40.05 9.23C40.40 8.72 40.88 8.30 41.72 8.30C42.67 8.30 43.08 8.78 43.08 9.59L43.08 10.12L41.83 10.12C39.84 10.12 38.71 10.86 38.71 12.36C38.71 13.66 39.55 14.52 41.03 14.52ZM41.64 13.22C40.94 13.22 40.53 12.92 40.53 12.33L40.53 12.10C40.53 11.52 40.99 11.20 41.93 11.20L43.08 11.20L43.08 12.17C43.08 12.85 42.43 13.22 41.64 13.22ZM48.85 14.35L48.85 9.87C48.85 9.07 49.48 8.74 50.68 8.74L51.24 8.74L51.24 7.04L50.85 7.04C49.69 7.04 49.10 7.78 48.92 8.55L48.85 8.55L48.85 7.04L47.05 7.04L47.05 14.35ZM57.02 14.35L58.81 14.35L58.81 3.99L57.02 3.99L57.02 8.25L56.95 8.25C56.70 7.41 55.90 6.87 54.94 6.87C53.10 6.87 52.08 8.25 52.08 10.68C52.08 13.13 53.10 14.52 54.94 14.52C55.90 14.52 56.69 13.96 56.95 13.13L57.02 13.13ZM55.51 13.03C54.59 13.03 53.96 12.36 53.96 11.33L53.96 10.07C53.96 9.03 54.59 8.34 55.51 8.34C56.36 8.34 57.02 8.81 57.02 9.52L57.02 11.84C57.02 12.60 56.36 13.03 55.51 13.03ZM63.28 14.52C65.10 14.52 66.29 13.54 66.29 12.12C66.29 10.91 65.52 10.19 63.92 9.97L63.18 9.87C62.50 9.76 62.23 9.53 62.23 9.04C62.23 8.60 62.57 8.29 63.34 8.29C64.05 8.29 64.67 8.62 65.09 9.07L66.14 8.02C65.44 7.29 64.71 6.87 63.28 6.87C61.61 6.87 60.51 7.77 60.51 9.18C60.51 10.51 61.38 11.20 62.94 11.40L63.67 11.49C64.32 11.58 64.57 11.84 64.57 12.26C64.57 12.78 64.20 13.10 63.35 13.10C62.52 13.10 61.88 12.73 61.35 12.11L60.26 13.17C60.98 14.01 61.89 14.52 63.28 14.52ZM75.08 14.52C76.83 14.52 77.99 13.66 78.69 12.21L77.20 11.33C76.87 12.21 76.19 12.88 75.08 12.88C73.71 12.88 72.83 11.93 72.83 10.25L72.83 8.71C72.83 7.04 73.71 6.05 75.08 6.05C76.17 6.05 76.79 6.64 77.07 7.50L78.65 6.66C77.97 5.15 76.83 4.41 75.08 4.41C72.51 4.41 70.87 6.24 70.87 9.53C70.87 12.82 72.51 14.52 75.08 14.52ZM81.06 5.98C81.79 5.98 82.11 5.60 82.11 5.08L82.11 4.80C82.11 4.28 81.79 3.91 81.06 3.91C80.32 3.91 80.01 4.28 80.01 4.80L80.01 5.08C80.01 5.60 80.32 5.98 81.06 5.98ZM80.16 14.35L81.96 14.35L81.96 7.04L80.16 7.04ZM86.31 14.35L87.60 14.35L87.60 12.92L86.21 12.92L86.21 8.47L87.71 8.47L87.71 7.04L86.21 7.04L86.21 5.04L84.60 5.04L84.60 6.29C84.60 6.79 84.43 7.04 83.90 7.04L83.34 7.04L83.34 8.47L84.42 8.47L84.42 12.49C84.42 13.68 85.08 14.35 86.31 14.35ZM92.47 10.91L91.97 12.75L91.88 12.75L91.41 10.91L90.13 7.04L88.35 7.04L90.97 14.70L90.64 15.72L89.32 15.72L89.32 17.15L90.40 17.15C91.60 17.15 92.12 16.70 92.48 15.65L95.42 7.04L93.74 7.04Z"></path></g><!----><!----></svg>